
<?xml version="1.0" encoding="UTF-8"?>
<svg viewBox="0 0 91 99" xmlns="http://www.w3.org/2000/svg">
<path d="m7.5879 15.234h8.7842l10.151 34.043 10.117-34.043h7.7588l-14.15 49.766h-7.4853l-15.176-49.766zm-3.5547 0h8.374l1.2989 32.812v16.953h-9.6729v-49.766zm36.538 0h8.4082v49.766h-9.6387v-16.953l1.2305-32.812zm23.003 0l7.5879 22.422 7.5195-22.422h10.903l-13.398 31.684v18.081h-10.083v-18.081l-13.398-31.684h10.869z" fill="#FF7A00" class="letter-1"/>
<path d="m4.8164 75.938v17.062h-3.4336v-17.062h3.4336zm5.3438 7.2539v2.8359h-6.211v-2.8359h6.211zm0.6562-7.2539v2.8477h-6.8672v-2.8477h6.8672zm5.5664 0v17.062h-3.4101v-17.062h3.4101zm14.859 0v17.062h-3.3164l-5.3555-10.676v10.676h-3.2578v-17.062h3.2695l5.4024 10.793v-10.793h3.2578zm9.1523 3.0469l-3.6679 14.016h-3.6211l5.332-17.062h2.2617l-0.3047 3.0469zm2.8946 14.016l-3.6914-14.016-0.3399-3.0469h2.2969l5.3789 17.062h-3.6445zm0.1289-6.3633v2.8477h-7.6992v-2.8477h7.6992zm17.074-10.699v17.062h-3.3164l-5.3555-10.676v10.676h-3.2578v-17.062h3.2695l5.4024 10.793v-10.793h3.2578zm10.898 11.379h3.4102c-0.0469 1.2813-0.3047 2.3633-0.7735 3.2461-0.4687 0.875-1.1367 1.5391-2.0039 1.9922-0.8593 0.4531-1.8984 0.6797-3.1172 0.6797-0.9453 0-1.7851-0.1563-2.5195-0.4688-0.7344-0.3203-1.3594-0.789-1.875-1.4062s-0.9062-1.3789-1.1719-2.2852c-0.2578-0.914-0.3867-1.9648-0.3867-3.1523v-2.8946c0-1.1875 0.1367-2.2382 0.4102-3.1523 0.2812-0.9141 0.6797-1.6797 1.1953-2.2969 0.5234-0.625 1.1523-1.0937 1.8867-1.4062 0.7422-0.3203 1.5781-0.4805 2.5078-0.4805 1.2422 0 2.2813 0.2344 3.1172 0.7031 0.8359 0.4688 1.4805 1.1524 1.9336 2.0508 0.4609 0.8906 0.7383 1.9805 0.832 3.2695h-3.4218c-0.0235-0.8125-0.1172-1.4492-0.2813-1.9101-0.1562-0.4688-0.4062-0.7969-0.75-0.9844-0.3437-0.1953-0.8203-0.293-1.4297-0.293-0.4531 0-0.8437 0.0821-1.1719 0.2461-0.3281 0.1563-0.5976 0.4102-0.8085 0.7618-0.211 0.3515-0.3672 0.8125-0.4688 1.3828-0.0937 0.5703-0.1406 1.2656-0.1406 2.0859v2.918c0 0.8047 0.0429 1.4922 0.1289 2.0625 0.0859 0.5625 0.2226 1.0234 0.4101 1.3828s0.4415 0.6211 0.7618 0.7851c0.3281 0.1641 0.7421 0.2461 1.2421 0.2461 0.5782 0 1.043-0.0859 1.3946-0.2578 0.3594-0.1718 0.625-0.4804 0.7969-0.9258 0.1718-0.4453 0.2695-1.0781 0.2929-1.8984zm15.34 2.8477v2.8359h-7.418v-2.8359h7.418zm-6.3516-14.227v17.062h-3.4336v-17.062h3.4336zm5.3555 6.9141v2.7539h-6.4219v-2.7539h6.4219zm0.9726-6.9141v2.8477h-7.3945v-2.8477h7.3945z" fill="#075318" class="letter-2"/>
</svg>